<mxfile host="app.diagrams.net" modified="2020-11-09T15:05:01.860Z" agent="5.0 (Macintosh; Intel Mac OS X 10_15_4) AppleWebKit/537.36 (KHTML, like Gecko) Chrome/86.0.4240.183 Safari/537.36" etag="B5SKdBfKobGYuG7dua_e" version="13.9.1" type="github">
  <diagram id="2OpyZ2NsxplecvwPvl-V" name="Page-1">
    <mxGraphModel dx="1426" dy="737" grid="1" gridSize="10" guides="1" tooltips="1" connect="1" arrows="1" fold="1" page="1" pageScale="1" pageWidth="827" pageHeight="1169" math="0" shadow="0">
      <root>
        <mxCell id="0" />
        <mxCell id="1" parent="0" />
        <mxCell id="nZjHZP_GbID4JEypJ_5Y-43" value="" style="rounded=0;whiteSpace=wrap;html=1;" vertex="1" parent="1">
          <mxGeometry x="30" y="50" width="750" height="480" as="geometry" />
        </mxCell>
        <mxCell id="nZjHZP_GbID4JEypJ_5Y-8" value="" style="shape=mxgraph.bpmn.user_task;html=1;outlineConnect=0;" vertex="1" parent="1">
          <mxGeometry x="70" y="100" width="60" height="70" as="geometry" />
        </mxCell>
        <mxCell id="nZjHZP_GbID4JEypJ_5Y-9" value="产品" style="text;html=1;strokeColor=none;fillColor=none;align=center;verticalAlign=middle;whiteSpace=wrap;rounded=0;" vertex="1" parent="1">
          <mxGeometry x="80" y="150" width="40" height="20" as="geometry" />
        </mxCell>
        <mxCell id="nZjHZP_GbID4JEypJ_5Y-10" value="" style="shape=mxgraph.bpmn.user_task;html=1;outlineConnect=0;" vertex="1" parent="1">
          <mxGeometry x="190" y="100" width="60" height="70" as="geometry" />
        </mxCell>
        <mxCell id="nZjHZP_GbID4JEypJ_5Y-11" value="数分" style="text;html=1;strokeColor=none;fillColor=none;align=center;verticalAlign=middle;whiteSpace=wrap;rounded=0;" vertex="1" parent="1">
          <mxGeometry x="200" y="150" width="40" height="20" as="geometry" />
        </mxCell>
        <mxCell id="nZjHZP_GbID4JEypJ_5Y-12" value="" style="shape=mxgraph.bpmn.user_task;html=1;outlineConnect=0;" vertex="1" parent="1">
          <mxGeometry x="310" y="100" width="60" height="70" as="geometry" />
        </mxCell>
        <mxCell id="nZjHZP_GbID4JEypJ_5Y-13" value="技术" style="text;html=1;strokeColor=none;fillColor=none;align=center;verticalAlign=middle;whiteSpace=wrap;rounded=0;" vertex="1" parent="1">
          <mxGeometry x="320" y="150" width="40" height="20" as="geometry" />
        </mxCell>
        <mxCell id="nZjHZP_GbID4JEypJ_5Y-14" value="" style="shape=mxgraph.bpmn.user_task;html=1;outlineConnect=0;" vertex="1" parent="1">
          <mxGeometry x="430" y="100" width="60" height="70" as="geometry" />
        </mxCell>
        <mxCell id="nZjHZP_GbID4JEypJ_5Y-15" value="QA" style="text;html=1;strokeColor=none;fillColor=none;align=center;verticalAlign=middle;whiteSpace=wrap;rounded=0;" vertex="1" parent="1">
          <mxGeometry x="440" y="150" width="40" height="20" as="geometry" />
        </mxCell>
        <mxCell id="nZjHZP_GbID4JEypJ_5Y-16" value="" style="shape=mxgraph.bpmn.user_task;html=1;outlineConnect=0;" vertex="1" parent="1">
          <mxGeometry x="550" y="100" width="60" height="70" as="geometry" />
        </mxCell>
        <mxCell id="nZjHZP_GbID4JEypJ_5Y-21" value="产品" style="text;html=1;strokeColor=none;fillColor=none;align=center;verticalAlign=middle;whiteSpace=wrap;rounded=0;" vertex="1" parent="1">
          <mxGeometry x="560" y="150" width="40" height="20" as="geometry" />
        </mxCell>
        <mxCell id="nZjHZP_GbID4JEypJ_5Y-22" value="" style="shape=mxgraph.bpmn.user_task;html=1;outlineConnect=0;" vertex="1" parent="1">
          <mxGeometry x="670" y="100" width="60" height="70" as="geometry" />
        </mxCell>
        <mxCell id="nZjHZP_GbID4JEypJ_5Y-23" value="运营" style="text;html=1;strokeColor=none;fillColor=none;align=center;verticalAlign=middle;whiteSpace=wrap;rounded=0;" vertex="1" parent="1">
          <mxGeometry x="680" y="150" width="40" height="20" as="geometry" />
        </mxCell>
        <mxCell id="nZjHZP_GbID4JEypJ_5Y-24" value="" style="endArrow=classic;html=1;" edge="1" parent="1" source="nZjHZP_GbID4JEypJ_5Y-8" target="nZjHZP_GbID4JEypJ_5Y-10">
          <mxGeometry width="50" height="50" relative="1" as="geometry">
            <mxPoint x="130" y="170" as="sourcePoint" />
            <mxPoint x="180" y="120" as="targetPoint" />
          </mxGeometry>
        </mxCell>
        <mxCell id="nZjHZP_GbID4JEypJ_5Y-25" value="" style="endArrow=classic;html=1;" edge="1" parent="1" target="nZjHZP_GbID4JEypJ_5Y-12">
          <mxGeometry width="50" height="50" relative="1" as="geometry">
            <mxPoint x="250" y="134.5" as="sourcePoint" />
            <mxPoint x="310" y="134.5" as="targetPoint" />
          </mxGeometry>
        </mxCell>
        <mxCell id="nZjHZP_GbID4JEypJ_5Y-26" value="" style="endArrow=classic;html=1;" edge="1" parent="1">
          <mxGeometry width="50" height="50" relative="1" as="geometry">
            <mxPoint x="370" y="134.5" as="sourcePoint" />
            <mxPoint x="430" y="134.83333333333337" as="targetPoint" />
          </mxGeometry>
        </mxCell>
        <mxCell id="nZjHZP_GbID4JEypJ_5Y-27" value="" style="endArrow=classic;html=1;" edge="1" parent="1">
          <mxGeometry width="50" height="50" relative="1" as="geometry">
            <mxPoint x="490" y="134.5" as="sourcePoint" />
            <mxPoint x="550" y="134.83333333333337" as="targetPoint" />
          </mxGeometry>
        </mxCell>
        <mxCell id="nZjHZP_GbID4JEypJ_5Y-29" value="" style="endArrow=classic;html=1;" edge="1" parent="1">
          <mxGeometry width="50" height="50" relative="1" as="geometry">
            <mxPoint x="610" y="134.5" as="sourcePoint" />
            <mxPoint x="670" y="134.83333333333337" as="targetPoint" />
          </mxGeometry>
        </mxCell>
        <mxCell id="nZjHZP_GbID4JEypJ_5Y-30" value="&lt;font color=&quot;#1f2329&quot;&gt;&lt;span style=&quot;font-size: 10px ; background-color: rgb(255 , 255 , 255)&quot;&gt;添加PV/VU统计表&lt;br&gt;统计联想词命中表&lt;br&gt;&lt;/span&gt;&lt;/font&gt;" style="rounded=0;whiteSpace=wrap;html=1;" vertex="1" parent="1">
          <mxGeometry x="51" y="210" width="100" height="60" as="geometry" />
        </mxCell>
        <mxCell id="nZjHZP_GbID4JEypJ_5Y-31" value="&lt;font color=&quot;#1f2329&quot;&gt;&lt;span style=&quot;font-size: 10px ; background-color: rgb(255 , 255 , 255)&quot;&gt;建模&lt;br&gt;需要埋点定义&lt;br&gt;&lt;/span&gt;&lt;/font&gt;" style="rounded=0;whiteSpace=wrap;html=1;" vertex="1" parent="1">
          <mxGeometry x="190" y="210" width="70" height="60" as="geometry" />
        </mxCell>
        <mxCell id="nZjHZP_GbID4JEypJ_5Y-32" value="&lt;font color=&quot;#1f2329&quot;&gt;&lt;span style=&quot;font-size: 10px ; background-color: rgb(255 , 255 , 255)&quot;&gt;埋&lt;br&gt;&lt;/span&gt;&lt;/font&gt;" style="rounded=0;whiteSpace=wrap;html=1;" vertex="1" parent="1">
          <mxGeometry x="305" y="210" width="70" height="60" as="geometry" />
        </mxCell>
        <mxCell id="nZjHZP_GbID4JEypJ_5Y-33" value="&lt;font color=&quot;#1f2329&quot;&gt;&lt;span style=&quot;font-size: 10px ; background-color: rgb(255 , 255 , 255)&quot;&gt;校验数据&lt;br&gt;&lt;/span&gt;&lt;/font&gt;" style="rounded=0;whiteSpace=wrap;html=1;" vertex="1" parent="1">
          <mxGeometry x="425" y="210" width="70" height="60" as="geometry" />
        </mxCell>
        <mxCell id="nZjHZP_GbID4JEypJ_5Y-34" value="&lt;font color=&quot;#1f2329&quot;&gt;&lt;span style=&quot;font-size: 10px ; background-color: rgb(255 , 255 , 255)&quot;&gt;验收&lt;br&gt;&lt;/span&gt;&lt;/font&gt;" style="rounded=0;whiteSpace=wrap;html=1;" vertex="1" parent="1">
          <mxGeometry x="550" y="210" width="70" height="60" as="geometry" />
        </mxCell>
        <mxCell id="nZjHZP_GbID4JEypJ_5Y-35" value="&lt;font color=&quot;#1f2329&quot;&gt;&lt;span style=&quot;font-size: 10px ; background-color: rgb(255 , 255 , 255)&quot;&gt;使用/返回&lt;br&gt;&lt;/span&gt;&lt;/font&gt;" style="rounded=0;whiteSpace=wrap;html=1;" vertex="1" parent="1">
          <mxGeometry x="665" y="210" width="70" height="60" as="geometry" />
        </mxCell>
        <mxCell id="nZjHZP_GbID4JEypJ_5Y-37" value="" style="endArrow=classic;html=1;" edge="1" parent="1" source="nZjHZP_GbID4JEypJ_5Y-30">
          <mxGeometry width="50" height="50" relative="1" as="geometry">
            <mxPoint x="150" y="290" as="sourcePoint" />
            <mxPoint x="190" y="240" as="targetPoint" />
          </mxGeometry>
        </mxCell>
        <mxCell id="nZjHZP_GbID4JEypJ_5Y-38" value="" style="endArrow=classic;html=1;entryX=0;entryY=0.5;entryDx=0;entryDy=0;" edge="1" parent="1" target="nZjHZP_GbID4JEypJ_5Y-32">
          <mxGeometry width="50" height="50" relative="1" as="geometry">
            <mxPoint x="260" y="239.5" as="sourcePoint" />
            <mxPoint x="300" y="239.5" as="targetPoint" />
          </mxGeometry>
        </mxCell>
        <mxCell id="nZjHZP_GbID4JEypJ_5Y-39" value="" style="endArrow=classic;html=1;" edge="1" parent="1">
          <mxGeometry width="50" height="50" relative="1" as="geometry">
            <mxPoint x="375" y="239.5" as="sourcePoint" />
            <mxPoint x="420" y="240" as="targetPoint" />
          </mxGeometry>
        </mxCell>
        <mxCell id="nZjHZP_GbID4JEypJ_5Y-40" value="" style="endArrow=classic;html=1;entryX=0;entryY=0.5;entryDx=0;entryDy=0;" edge="1" parent="1" target="nZjHZP_GbID4JEypJ_5Y-34">
          <mxGeometry width="50" height="50" relative="1" as="geometry">
            <mxPoint x="495" y="239.5" as="sourcePoint" />
            <mxPoint x="540" y="240" as="targetPoint" />
          </mxGeometry>
        </mxCell>
        <mxCell id="nZjHZP_GbID4JEypJ_5Y-42" value="" style="endArrow=classic;html=1;" edge="1" parent="1">
          <mxGeometry width="50" height="50" relative="1" as="geometry">
            <mxPoint x="620" y="239.5" as="sourcePoint" />
            <mxPoint x="670" y="240" as="targetPoint" />
          </mxGeometry>
        </mxCell>
        <mxCell id="nZjHZP_GbID4JEypJ_5Y-44" value="&lt;div style=&quot;text-align: left&quot;&gt;&lt;span&gt;1，产品给到数分需求滞后或者定义不明确&lt;/span&gt;&lt;/div&gt;&lt;div style=&quot;text-align: left&quot;&gt;&lt;span&gt;2，数分没有按要求进行建模，给出埋点定义不明确&lt;/span&gt;&lt;/div&gt;&lt;div style=&quot;text-align: left&quot;&gt;&lt;span&gt;3，技术埋点没有对照文档，埋点丢失字段&lt;/span&gt;&lt;/div&gt;&lt;div style=&quot;text-align: left&quot;&gt;&lt;span&gt;4，QA只能保证埋点存在，不能保证数据格式正确&lt;/span&gt;&lt;/div&gt;&lt;div style=&quot;text-align: left&quot;&gt;&lt;span&gt;5，产品验收，没有具体统计表只有埋点，验收不准确&lt;/span&gt;&lt;/div&gt;&lt;div style=&quot;text-align: left&quot;&gt;&lt;span&gt;6，运营时候，容易出现数据丢失问题&lt;/span&gt;&lt;/div&gt;" style="rounded=0;whiteSpace=wrap;html=1;" vertex="1" parent="1">
          <mxGeometry x="50" y="290" width="300" height="90" as="geometry" />
        </mxCell>
        <mxCell id="nZjHZP_GbID4JEypJ_5Y-45" value="&lt;div style=&quot;text-align: left&quot;&gt;1，埋点使用和反馈流程过长，验收标准对象不正确&lt;/div&gt;&lt;div style=&quot;text-align: left&quot;&gt;2，埋点字段不能作为验收成果，统计表才是验收成果&lt;br&gt;3，QA\产品调整自己验收标准从埋点存在 --&amp;gt; 统计表导出&lt;br&gt;4，问题反馈需要缩小范围，【数分、技术】排查，QA和产品无法排查建模&lt;/div&gt;" style="rounded=0;whiteSpace=wrap;html=1;" vertex="1" parent="1">
          <mxGeometry x="370" y="290" width="410" height="90" as="geometry" />
        </mxCell>
      </root>
    </mxGraphModel>
  </diagram>
</mxfile>
